<?xml version="1.0" encoding="utf-8"?>
<!-- Generator: Adobe Illustrator 18.0.0, SVG Export Plug-In . SVG Version: 6.00 Build 0)  -->
<!DOCTYPE svg PUBLIC "-//W3C//DTD SVG 1.1//EN" "http://www.w3.org/Graphics/SVG/1.1/DTD/svg11.dtd">
<svg version="1.1" id="Layer_1" xmlns="http://www.w3.org/2000/svg" xmlns:xlink="http://www.w3.org/1999/xlink" x="0px" y="0px"
	 viewBox="0 0 200 73" style="enable-background:new 0 0 200 73;" xml:space="preserve">
<style type="text/css">
	.st0{fill:#B2AFAB;}
	.st1{fill:#F05A50;}
</style>
<g>
	<rect x="103.3" y="21.9" class="st0" width="4.9" height="29.2"/>
	<rect x="165.7" y="21.9" class="st0" width="4.9" height="29.2"/>
	<path class="st0" d="M194.9,46.3v-8.8h5v10.7c0,0.6-0.3,1.1-0.8,1.3c-5.4,2.9-14.5,2.9-19.4-1.7c-3.7-3.5-5-8-4.6-12.9
		c0.6-7.1,5.2-12.1,12.1-13.4c3.6-0.6,8-0.2,11.2,2c0.2,0.1,0.3,0.4,0.3,0.7v4.5c-0.9-0.6-2.2-1.4-3.3-1.8
		c-4.3-1.7-8.3-1.6-11.9,1.6c-2.6,2.3-3.4,5.4-3.3,8.8c0.3,5.1,3.7,9,8.5,9.7C191.1,47.3,193.2,46.9,194.9,46.3"/>
	<path class="st0" d="M132.7,46.3v-8.8h5v10.7c0,0.6-0.3,1.1-0.8,1.3c-5.4,2.9-14.5,2.9-19.4-1.7c-3.7-3.5-5-8-4.6-12.9
		c0.6-7.1,5.2-12.1,12.1-13.4c3.6-0.6,8-0.2,11.2,2c0.2,0.1,0.3,0.4,0.3,0.7v4.5c-0.9-0.6-2.2-1.4-3.3-1.8
		c-4.3-1.7-8.3-1.6-11.9,1.6c-2.6,2.3-3.4,5.4-3.3,8.8c0.3,5.1,3.7,9,8.5,9.7C128.9,47.3,131,46.9,132.7,46.3"/>
	<path class="st0" d="M97.1,23.6v4.9c-0.8-0.6-1.6-1.1-2.4-1.5c-2.1-1.2-4.2-1.6-6.6-1.1c-1.6,0.4-2.6,1.4-2.8,2.9
		c-0.3,1.7,0.3,3,1.9,3.8c1.6,0.8,3.3,1.3,5,2c1.8,0.7,3.6,1.5,4.8,3.1c3.6,4.4,1.8,11.3-3.6,13.2c-3.8,1.4-8.2,1.5-12.8-1.5l0-4.8
		c3.7,2.7,6.8,3.4,10.2,2.5c1.6-0.4,2.7-1.4,2.9-3.1c0.2-1.8-0.5-3.2-2-4c-1.5-0.7-3.1-1.2-4.6-1.8c-1.9-0.7-3.7-1.5-5.1-3.1
		c-3.9-4.6-1.6-11.7,4.3-13.2C89.9,20.9,93.8,21.3,97.1,23.6"/>
	<polygon class="st0" points="143.7,21.9 143.7,51.1 148.5,51.1 148.5,39.1 159.8,39.1 159.8,34.6 148.5,34.6 148.5,26.2 
		159.8,26.2 159.8,21.9 	"/>
	<path class="st1" d="M10.9,34.1c0.2-0.2,0.5-0.3,0.8-0.5c7.2-4.2,8.7-6.8,8.7-15.1c0-7.5,6.2-13.6,13.7-13.6c2.7,0,5.2,0.8,7.3,2.1
		c1.9-0.8,3.9-1.3,5.9-1.5C43.9,2.1,39.3,0,34.1,0C23.9,0,15.6,8.3,15.5,18.5c0,6.7-0.6,7.6-6.3,10.9c-0.2,0.1-0.3,0.2-0.5,0.3
		C9.1,31.3,9.8,32.9,10.9,34.1"/>
	<path class="st1" d="M20.5,55.4c0-0.3,0-0.6,0-0.9c0-8.4-1.5-10.9-8.7-15.1c-6.5-3.8-8.7-12.2-5-18.7c1.3-2.3,3.3-4.1,5.5-5.2
		c0.3-2,0.9-4,1.7-5.9c-4.6,1.2-8.8,4.2-11.4,8.7c-5.1,8.8-2.1,20.2,6.7,25.3c5.8,3.4,6.3,4.3,6.3,10.9c0,0.2,0,0.4,0,0.6
		C17.1,55.6,18.8,55.7,20.5,55.4"/>
	<path class="st1" d="M43.6,57.8c-0.3-0.1-0.5-0.3-0.8-0.4c-7.3-4.2-10.2-4.2-17.5,0c-6.5,3.7-14.9,1.5-18.6-5
		C5.4,50,4.8,47.4,4.9,45c-1.6-1.3-3-2.7-4.2-4.4c-1.3,4.6-0.8,9.7,1.8,14.2c5.1,8.8,16.4,11.9,25.3,6.8c5.8-3.3,6.8-3.3,12.6,0
		c0.2,0.1,0.3,0.2,0.5,0.3C42.1,60.8,43.1,59.3,43.6,57.8"/>
	<path class="st1" d="M57.3,38.9c-0.2,0.2-0.5,0.3-0.8,0.5c-7.2,4.2-8.7,6.8-8.7,15.1c0,7.5-6.2,13.6-13.7,13.6
		c-2.7,0-5.2-0.8-7.3-2.1c-1.9,0.8-3.9,1.3-5.9,1.5c3.4,3.4,8,5.5,13.2,5.5c10.2,0,18.5-8.3,18.6-18.5c0-6.7,0.6-7.6,6.3-10.9
		c0.2-0.1,0.3-0.2,0.5-0.3C59.1,41.7,58.4,40.1,57.3,38.9"/>
	<path class="st1" d="M47.8,17.6c0,0.3,0,0.6,0,0.9c0,8.4,1.5,10.9,8.7,15.1c6.5,3.8,8.7,12.2,5,18.7c-1.3,2.3-3.3,4.1-5.5,5.2
		c-0.3,2-0.9,4-1.7,5.9c4.6-1.2,8.8-4.2,11.4-8.7c5.1-8.8,2.1-20.2-6.7-25.3c-5.8-3.4-6.3-4.3-6.3-10.9c0-0.2,0-0.4,0-0.6
		C51.1,17.4,49.4,17.3,47.8,17.6"/>
	<path class="st1" d="M24.6,15.2c0.3,0.1,0.5,0.3,0.8,0.4c7.3,4.2,10.2,4.2,17.5,0c6.5-3.7,14.9-1.5,18.6,5c1.3,2.3,1.9,4.9,1.8,7.4
		c1.6,1.3,3,2.7,4.2,4.4c1.3-4.6,0.8-9.7-1.8-14.2c-5.1-8.8-16.4-11.9-25.3-6.8c-5.8,3.3-6.8,3.3-12.6,0c-0.2-0.1-0.3-0.2-0.5-0.3
		C26.1,12.2,25.1,13.7,24.6,15.2"/>
</g>
</svg>
